# xmcd
#
# Track frame offsets: 
#        150
#        20332
#        31407
#        43158
#        55672
#        68187
#        84648
#        113904
#        128296
#
# Disc length: 1898 seconds
#
# Revision: 0
# Processed by: cddbd v1.5.1PL0 Copyright (c) Steve Scherf et al.
# Submitted via: ExactAudioCopy v0.95a5
#
DISCID=6d076809
DTITLE=Isley Brothers - Isley Brothers: The Ultimate Collection [CD
DTITLE=3)
DYEAR=2002
DGENRE=R&B/Soul
TTITLE0=Shout
TTITLE1=Twist And Shout
TTITLE2=This Old Heart Of Mine
TTITLE3=It's Your Thing
TTITLE4=Behind A Painted Smile
TTITLE5=Love The One You're With
TTITLE6=Spill The Wine
TTITLE7=Work To Do
TTITLE8=Summerbreeze
EXTD=
EXTT0=
EXTT1=
EXTT2=
EXTT3=
EXTT4=
EXTT5=
EXTT6=
EXTT7=
EXTT8=
PLAYORDER=
